<svg width="20" height="20" viewBox="0 0 20 20" fill="none" xmlns="http://www.w3.org/2000/svg">
<path d="M9.99982 2.41687C8.96136 2.41687 7.98139 2.61452 7.05992 3.00983C6.13845 3.40512 5.33183 3.94865 4.64007 4.64043C3.94829 5.3322 3.40475 6.13853 3.00946 7.05943C2.61416 7.98032 2.4165 8.96375 2.4165 10.0097C2.4165 11.0557 2.61416 12.036 3.00946 12.9505C3.40475 13.865 3.94829 14.6682 4.64007 15.3599C5.33183 16.0517 6.13714 16.5952 7.056 16.9905C7.97488 17.3858 8.95615 17.5835 9.99982 17.5835C11.9293 17.5835 13.5924 16.9632 14.9892 15.7227C16.3859 14.4821 17.2206 12.9384 17.4934 11.0915H16.3869C16.2079 12.2016 15.7723 13.189 15.08 14.0538C14.3876 14.9187 13.5276 15.5659 12.4998 15.9954V15.5002C12.4998 15.0877 12.3529 14.7346 12.0592 14.4408C11.7654 14.1471 11.4123 14.0002 10.9998 14.0002H8.99982V13.0002C8.99982 12.7168 8.90398 12.4793 8.71232 12.2877C8.52065 12.096 8.28315 12.0002 7.99982 12.0002H6.99982V10.0002H7.93571V8.00018H6.99982L3.64565 11.3543C3.60919 11.1321 3.57577 10.9099 3.5454 10.6877C3.51501 10.4655 3.49982 10.2363 3.49982 10.0002C3.49982 8.19463 4.13176 6.65991 5.39565 5.39602C6.65954 4.13213 8.19426 3.50018 9.99982 3.50018V2.41687ZM16.9053 2.82072L14.2386 5.47137C13.9822 5.28547 13.7091 5.14658 13.4194 5.0547C13.1296 4.96282 12.8231 4.91687 12.4998 4.91687C11.6398 4.91687 10.9109 5.21575 10.3131 5.8135C9.71538 6.41126 9.4165 7.14016 9.4165 8.00018C9.4165 8.86021 9.71538 9.58911 10.3131 10.1869C10.9109 10.7846 11.6398 11.0835 12.4998 11.0835C13.3598 11.0835 14.0887 10.785 14.6865 10.1879C15.2843 9.59087 15.5831 8.86284 15.5831 8.00381C15.5831 7.67554 15.5359 7.36451 15.4413 7.0707C15.3467 6.7769 15.2038 6.50179 15.0126 6.24539L17.6793 3.59475L16.9053 2.82072ZM12.4951 6.00018C13.0538 6.00018 13.5276 6.19306 13.9165 6.57883C14.3054 6.96458 14.4998 7.4368 14.4998 7.99549C14.4998 8.55418 14.3069 9.02796 13.9212 9.41685C13.5354 9.80574 13.0632 10.0002 12.5045 10.0002C11.9458 10.0002 11.472 9.8073 11.0831 9.42154C10.6943 9.03579 10.4998 8.56357 10.4998 8.00487C10.4998 7.44619 10.6927 6.97241 11.0785 6.58352C11.4642 6.19463 11.9364 6.00018 12.4951 6.00018Z" fill="#6F7377"/>
</svg>