<svg width="24" height="24" viewBox="0 0 24 24" fill="none" xmlns="http://www.w3.org/2000/svg">
<path d="M12 21.5C10.6858 21.5 9.45082 21.2506 8.295 20.752C7.13917 20.2533 6.13375 19.5765 5.27875 18.7217C4.42375 17.8669 3.74688 16.8616 3.24812 15.706C2.74937 14.5504 2.5 13.3156 2.5 12.0017C2.5 10.6877 2.74933 9.45268 3.248 8.29655C3.74667 7.1404 4.42342 6.13472 5.27825 5.2795C6.1331 4.42427 7.13834 3.74721 8.29398 3.24833C9.44959 2.74944 10.6844 2.5 11.9983 2.5C13.3122 2.5 14.5473 2.74938 15.7034 3.24813C16.8596 3.74688 17.8652 4.42375 18.7205 5.27875C19.5757 6.13375 20.2527 7.13917 20.7516 8.295C21.2505 9.45082 21.5 10.6858 21.5 12C21.5 12.45 21.4717 12.8916 21.4153 13.325C21.3589 13.7583 21.2692 14.1833 21.1461 14.6C20.9641 14.4102 20.7589 14.2478 20.5307 14.1125C20.3025 13.9772 20.0532 13.8827 19.7827 13.8289C19.8583 13.534 19.9134 13.2349 19.9481 12.9317C19.9827 12.6285 20 12.3179 20 12C20 9.76664 19.225 7.87498 17.675 6.32498C16.125 4.77498 14.2333 3.99998 12 3.99998C9.76664 3.99998 7.87498 4.77498 6.32498 6.32498C4.77498 7.87498 3.99998 9.76664 3.99998 12C3.99998 14.2333 4.77498 16.125 6.32498 17.675C7.87498 19.225 9.76664 20 12 20C12.8756 20 13.7089 19.8682 14.4997 19.6047C15.2905 19.3412 16.0175 18.9723 16.6808 18.4981C16.8359 18.7045 17.0176 18.8903 17.2259 19.0557C17.4343 19.2211 17.6602 19.3525 17.9038 19.45C17.0923 20.0948 16.188 20.5977 15.1911 20.9586C14.1941 21.3195 13.1304 21.5 12 21.5ZM19.1063 17.75C18.8264 17.75 18.5897 17.6533 18.3961 17.4601C18.2025 17.2669 18.1058 17.0304 18.1058 16.7505C18.1058 16.4707 18.2024 16.234 18.3956 16.0404C18.5888 15.8468 18.8254 15.75 19.1052 15.75C19.385 15.75 19.6217 15.8466 19.8153 16.0398C20.0089 16.2331 20.1057 16.4696 20.1057 16.7494C20.1057 17.0293 20.0091 17.266 19.8159 17.4596C19.6227 17.6532 19.3861 17.75 19.1063 17.75ZM15.4731 16.5269L11.25 12.3036V6.99998H12.75V11.6961L16.5269 15.4731L15.4731 16.5269Z" fill="#282E37"/>
</svg>