<svg width="20" height="20" viewBox="0 0 20 20" fill="none" xmlns="http://www.w3.org/2000/svg">
<path d="M8.83979 13.6154H6.03212C5.03187 13.6154 4.17925 13.2624 3.47425 12.5566C2.76925 11.8508 2.41675 10.9972 2.41675 9.99575C2.41675 8.99432 2.76925 8.14211 3.47425 7.43912C4.17925 6.73614 5.03187 6.38464 6.03212 6.38464H8.83979V7.46793H6.03212C5.33233 7.46793 4.73537 7.715 4.24125 8.20912C3.74712 8.70325 3.50006 9.30021 3.50006 10C3.50006 10.6998 3.74712 11.2967 4.24125 11.7909C4.73537 12.285 5.33233 12.5321 6.03212 12.5321H8.83979V13.6154ZM7.20842 10.5416V9.45835H12.7917V10.5416H7.20842ZM11.1603 13.6154V12.5321H13.968C14.6678 12.5321 15.2647 12.285 15.7589 11.7909C16.253 11.2967 16.5001 10.6998 16.5001 10C16.5001 9.30021 16.253 8.70325 15.7589 8.20912C15.2647 7.715 14.6678 7.46793 13.968 7.46793H11.1603V6.38464H13.968C14.9682 6.38464 15.8209 6.73755 16.5259 7.44337C17.2309 8.14921 17.5834 9.00283 17.5834 10.0042C17.5834 11.0057 17.2309 11.8579 16.5259 12.5609C15.8209 13.2639 14.9682 13.6154 13.968 13.6154H11.1603Z" fill="#6F7377"/>
</svg>