<svg width="20" height="20" viewBox="0 0 20 20" fill="none" xmlns="http://www.w3.org/2000/svg">
<path d="M10.007 17.5836C8.96374 17.5836 7.98124 17.3863 7.05946 16.9915C6.13767 16.5968 5.33085 16.0537 4.639 15.3622C3.94714 14.6706 3.40376 13.8645 3.00886 12.9437C2.61396 12.0229 2.4165 11.0391 2.4165 9.99216C2.4165 8.94524 2.61387 7.96437 3.00859 7.04953C3.40331 6.13469 3.94643 5.33134 4.63796 4.63949C5.3295 3.94763 6.13566 3.40425 7.05644 3.00935C7.97722 2.61444 8.96106 2.41699 10.008 2.41699C11.0549 2.41699 12.0358 2.61435 12.9506 3.00908C13.8654 3.4038 14.6688 3.94692 15.3606 4.63845C16.0525 5.32999 16.5959 6.13453 16.9908 7.05206C17.3857 7.96958 17.5831 8.94995 17.5831 9.99316C17.5831 11.0364 17.3858 12.0189 16.991 12.9407C16.5963 13.8625 16.0532 14.6693 15.3617 15.3611C14.6701 16.053 13.8656 16.5964 12.9481 16.9913C12.0305 17.3862 11.0502 17.5836 10.007 17.5836ZM9.99982 16.5003C11.8054 16.5003 13.3401 15.8684 14.604 14.6045C15.8679 13.3406 16.4998 11.8059 16.4998 10.0003C16.4998 8.19475 15.8679 6.66003 14.604 5.39614C13.3401 4.13225 11.8054 3.50031 9.99982 3.50031C8.19426 3.50031 6.65954 4.13225 5.39565 5.39614C4.13176 6.66003 3.49982 8.19475 3.49982 10.0003C3.49982 11.8059 4.13176 13.3406 5.39565 14.6045C6.65954 15.8684 8.19426 16.5003 9.99982 16.5003Z" fill="#6F7377"/>
</svg>