<svg width="20" height="20" viewBox="0 0 20 20" fill="none" xmlns="http://www.w3.org/2000/svg">
<rect width="20" height="20" rx="10" fill="#FEE400"/>
<path d="M12.9357 13.3977L13.7097 12.6237L10.5415 9.45524V5.00031H9.45817V9.92018L12.9357 13.3977ZM10.0012 17.5836C8.95661 17.5836 7.97473 17.3863 7.05555 16.9915C6.13637 16.5968 5.33085 16.0537 4.639 15.3622C3.94714 14.6706 3.40376 13.8645 3.00886 12.9437C2.61396 12.0229 2.4165 11.0391 2.4165 9.99216C2.4165 8.94524 2.61387 7.96089 3.00859 7.03912C3.40331 6.11733 3.94643 5.31398 4.63796 4.62908C5.3295 3.94416 6.13566 3.40425 7.05644 3.00935C7.97722 2.61444 8.96106 2.41699 10.008 2.41699C11.0549 2.41699 12.0393 2.61602 12.9611 3.01408C13.883 3.41213 14.6849 3.95234 15.3668 4.6347C16.0488 5.31708 16.5886 6.1195 16.9864 7.04197C17.3842 7.96443 17.5831 8.95008 17.5831 9.99891C17.5831 11.0435 17.3858 12.0254 16.991 12.9446C16.5963 13.8638 16.0567 14.6693 15.3721 15.3611C14.6875 16.053 13.8836 16.5964 12.9604 16.9913C12.0373 17.3862 11.0509 17.5836 10.0012 17.5836ZM10.0098 16.5003C11.808 16.5003 13.3393 15.8649 14.6035 14.5941C15.8677 13.3232 16.4998 11.7887 16.4998 9.99037C16.4998 8.19208 15.8677 6.66083 14.6035 5.39662C13.3393 4.13241 11.808 3.50031 10.0098 3.50031C8.21146 3.50031 6.6769 4.13241 5.40607 5.39662C4.13523 6.66083 3.49982 8.19208 3.49982 9.99037C3.49982 11.7887 4.13523 13.3232 5.40607 14.5941C6.6769 15.8649 8.21146 16.5003 10.0098 16.5003Z" fill="#282E37"/>
</svg>