<svg width="20" height="20" viewBox="0 0 20 20" fill="none" xmlns="http://www.w3.org/2000/svg">
<path d="M1.72119 16.5833L9.99998 2.83337L18.2788 16.5833H1.72119ZM3.64582 15.5H16.3542L9.99998 4.91665L3.64582 15.5ZM9.99559 14.3397C10.1614 14.3397 10.3019 14.2836 10.417 14.1714C10.5322 14.0592 10.5897 13.9202 10.5897 13.7544C10.5897 13.5885 10.5336 13.448 10.4214 13.3329C10.3092 13.2178 10.1702 13.1602 10.0044 13.1602C9.83852 13.1602 9.69803 13.2163 9.58292 13.3285C9.46781 13.4407 9.41025 13.5797 9.41025 13.7456C9.41025 13.9114 9.46635 14.0519 9.57855 14.167C9.69073 14.2822 9.82974 14.3397 9.99559 14.3397ZM9.45834 12.1602H10.5416V8.16025H9.45834V12.1602Z" fill="#6F7377"/>
</svg>